<?xml version="1.0" encoding="UTF-8" standalone="no"?>
<!DOCTYPE svg PUBLIC "-//W3C//DTD SVG 1.1//EN"
 "http://www.w3.org/Graphics/SVG/1.1/DTD/svg11.dtd">
<!-- Generated by graphviz version 2.40.1 (20161225.0304)
 -->
<!-- Title: controllers_diagram Pages: 1 -->
<svg width="569pt" height="470pt"
 viewBox="0.00 0.00 568.55 470.00" xmlns="http://www.w3.org/2000/svg" xmlns:xlink="http://www.w3.org/1999/xlink">
<g id="graph0" class="graph" transform="scale(1 1) rotate(0) translate(4 466)">
<title>controllers_diagram</title>
<polygon fill="transparent" stroke="transparent" points="-4,4 -4,-466 564.5518,-466 564.5518,4 -4,4"/>
<!-- _diagram_info -->
<g id="node1" class="node">
<title>_diagram_info</title>
<text text-anchor="start" x="110" y="-432.6" font-family="Times,serif" font-size="13.00" fill="#000000">Controllers diagram</text>
<text text-anchor="start" x="110" y="-419.6" font-family="Times,serif" font-size="13.00" fill="#000000">Date: Apr 01 2019 &#45; 16:23</text>
<text text-anchor="start" x="110" y="-406.6" font-family="Times,serif" font-size="13.00" fill="#000000">Migration version: 20190318180600</text>
<text text-anchor="start" x="110" y="-393.6" font-family="Times,serif" font-size="13.00" fill="#000000">Generated by RailRoady 1.5.3</text>
<text text-anchor="start" x="110" y="-380.6" font-family="Times,serif" font-size="13.00" fill="#000000">http://railroady.prestonlee.com</text>
</g>
<!-- ApplicationController -->
<g id="node2" class="node">
<title>ApplicationController</title>
<path fill="none" stroke="#000000" d="M233,-.5C233,-.5 348.6416,-.5 348.6416,-.5 354.6416,-.5 360.6416,-6.5 360.6416,-12.5 360.6416,-12.5 360.6416,-80.5 360.6416,-80.5 360.6416,-86.5 354.6416,-92.5 348.6416,-92.5 348.6416,-92.5 233,-92.5 233,-92.5 227,-92.5 221,-86.5 221,-80.5 221,-80.5 221,-12.5 221,-12.5 221,-6.5 227,-.5 233,-.5"/>
<text text-anchor="middle" x="290.8208" y="-77.3" font-family="Times,serif" font-size="14.00" fill="#000000">ApplicationController</text>
<polyline fill="none" stroke="#000000" points="221,-70.5 360.6416,-70.5 "/>
<polyline fill="none" stroke="#000000" points="221,-46.5 360.6416,-46.5 "/>
<polyline fill="none" stroke="#000000" points="221,-22.5 360.6416,-22.5 "/>
<text text-anchor="start" x="229" y="-7.3" font-family="Times,serif" font-size="14.00" fill="#000000">_layout</text>
</g>
<!-- UsersController -->
<g id="node3" class="node">
<title>UsersController</title>
<path fill="none" stroke="#000000" d="M352,-119.5C352,-119.5 452.8418,-119.5 452.8418,-119.5 458.8418,-119.5 464.8418,-125.5 464.8418,-131.5 464.8418,-131.5 464.8418,-309.5 464.8418,-309.5 464.8418,-315.5 458.8418,-321.5 452.8418,-321.5 452.8418,-321.5 352,-321.5 352,-321.5 346,-321.5 340,-315.5 340,-309.5 340,-309.5 340,-131.5 340,-131.5 340,-125.5 346,-119.5 352,-119.5"/>
<text text-anchor="middle" x="402.4209" y="-306.3" font-family="Times,serif" font-size="14.00" fill="#000000">UsersController</text>
<polyline fill="none" stroke="#000000" points="340,-299.5 464.8418,-299.5 "/>
<polyline fill="none" stroke="#000000" points="340,-275.5 464.8418,-275.5 "/>
<text text-anchor="start" x="348" y="-260.3" font-family="Times,serif" font-size="14.00" fill="#000000">resource_url</text>
<text text-anchor="start" x="348" y="-246.3" font-family="Times,serif" font-size="14.00" fill="#000000">collection_url</text>
<text text-anchor="start" x="348" y="-232.3" font-family="Times,serif" font-size="14.00" fill="#000000">edit_resource_path</text>
<text text-anchor="start" x="348" y="-218.3" font-family="Times,serif" font-size="14.00" fill="#000000">edit_resource_url</text>
<text text-anchor="start" x="348" y="-204.3" font-family="Times,serif" font-size="14.00" fill="#000000">new_resource_path</text>
<text text-anchor="start" x="348" y="-190.3" font-family="Times,serif" font-size="14.00" fill="#000000">new_resource_url</text>
<text text-anchor="start" x="348" y="-176.3" font-family="Times,serif" font-size="14.00" fill="#000000">resource_path</text>
<text text-anchor="start" x="348" y="-162.3" font-family="Times,serif" font-size="14.00" fill="#000000">collection_path</text>
<polyline fill="none" stroke="#000000" points="340,-155.5 464.8418,-155.5 "/>
<text text-anchor="start" x="348" y="-140.3" font-family="Times,serif" font-size="14.00" fill="#000000">_layout</text>
<text text-anchor="start" x="348" y="-126.3" font-family="Times,serif" font-size="14.00" fill="#000000">user_params</text>
</g>
<!-- Api::V1::UsersController -->
<g id="node4" class="node">
<title>Api::V1::UsersController</title>
<path fill="none" stroke="#000000" d="M12,-17.5C12,-17.5 147.0967,-17.5 147.0967,-17.5 153.0967,-17.5 159.0967,-23.5 159.0967,-29.5 159.0967,-29.5 159.0967,-95.5 159.0967,-95.5 159.0967,-101.5 153.0967,-107.5 147.0967,-107.5 147.0967,-107.5 12,-107.5 12,-107.5 6,-107.5 0,-101.5 0,-95.5 0,-95.5 0,-29.5 0,-29.5 0,-23.5 6,-17.5 12,-17.5"/>
<text text-anchor="middle" x="79.5483" y="-92.3" font-family="Times,serif" font-size="14.00" fill="#000000">Api::V1::UsersController</text>
<polyline fill="none" stroke="#000000" points="0,-85.5 159.0967,-85.5 "/>
<text text-anchor="start" x="8" y="-70.3" font-family="Times,serif" font-size="14.00" fill="#000000">index</text>
<polyline fill="none" stroke="#000000" points="0,-63.5 159.0967,-63.5 "/>
<polyline fill="none" stroke="#000000" points="0,-39.5 159.0967,-39.5 "/>
<text text-anchor="start" x="8" y="-24.3" font-family="Times,serif" font-size="14.00" fill="#000000">_layout</text>
</g>
<!-- Api::V1::CollectionPointsController -->
<g id="node5" class="node">
<title>Api::V1::CollectionPointsController</title>
<path fill="none" stroke="#000000" d="M352,-357.5C352,-357.5 548.5518,-357.5 548.5518,-357.5 554.5518,-357.5 560.5518,-363.5 560.5518,-369.5 560.5518,-369.5 560.5518,-449.5 560.5518,-449.5 560.5518,-455.5 554.5518,-461.5 548.5518,-461.5 548.5518,-461.5 352,-461.5 352,-461.5 346,-461.5 340,-455.5 340,-449.5 340,-449.5 340,-369.5 340,-369.5 340,-363.5 346,-357.5 352,-357.5"/>
<text text-anchor="middle" x="450.2759" y="-446.3" font-family="Times,serif" font-size="14.00" fill="#000000">Api::V1::CollectionPointsController</text>
<polyline fill="none" stroke="#000000" points="340,-439.5 560.5518,-439.5 "/>
<text text-anchor="start" x="348" y="-424.3" font-family="Times,serif" font-size="14.00" fill="#000000">assign_points</text>
<text text-anchor="start" x="348" y="-410.3" font-family="Times,serif" font-size="14.00" fill="#000000">index</text>
<polyline fill="none" stroke="#000000" points="340,-403.5 560.5518,-403.5 "/>
<polyline fill="none" stroke="#000000" points="340,-379.5 560.5518,-379.5 "/>
<text text-anchor="start" x="348" y="-364.3" font-family="Times,serif" font-size="14.00" fill="#000000">_layout</text>
</g>
<!-- Api::BaseController -->
<g id="node6" class="node">
<title>Api::BaseController</title>
<path fill="none" stroke="#000000" d="M403,-.5C403,-.5 510.0557,-.5 510.0557,-.5 516.0557,-.5 522.0557,-6.5 522.0557,-12.5 522.0557,-12.5 522.0557,-78.5 522.0557,-78.5 522.0557,-84.5 516.0557,-90.5 510.0557,-90.5 510.0557,-90.5 403,-90.5 403,-90.5 397,-90.5 391,-84.5 391,-78.5 391,-78.5 391,-12.5 391,-12.5 391,-6.5 397,-.5 403,-.5"/>
<text text-anchor="middle" x="456.5278" y="-75.3" font-family="Times,serif" font-size="14.00" fill="#000000">Api::BaseController</text>
<polyline fill="none" stroke="#000000" points="391,-68.5 522.0557,-68.5 "/>
<text text-anchor="start" x="399" y="-53.3" font-family="Times,serif" font-size="14.00" fill="#000000">authenticate_request</text>
<polyline fill="none" stroke="#000000" points="391,-46.5 522.0557,-46.5 "/>
<polyline fill="none" stroke="#000000" points="391,-22.5 522.0557,-22.5 "/>
<text text-anchor="start" x="399" y="-7.3" font-family="Times,serif" font-size="14.00" fill="#000000">_layout</text>
</g>
<!-- CollectionPointsController -->
<g id="node7" class="node">
<title>CollectionPointsController</title>
<path fill="none" stroke="#000000" d="M148,-136.5C148,-136.5 290.8828,-136.5 290.8828,-136.5 296.8828,-136.5 302.8828,-142.5 302.8828,-148.5 302.8828,-148.5 302.8828,-326.5 302.8828,-326.5 302.8828,-332.5 296.8828,-338.5 290.8828,-338.5 290.8828,-338.5 148,-338.5 148,-338.5 142,-338.5 136,-332.5 136,-326.5 136,-326.5 136,-148.5 136,-148.5 136,-142.5 142,-136.5 148,-136.5"/>
<text text-anchor="middle" x="219.4414" y="-323.3" font-family="Times,serif" font-size="14.00" fill="#000000">CollectionPointsController</text>
<polyline fill="none" stroke="#000000" points="136,-316.5 302.8828,-316.5 "/>
<polyline fill="none" stroke="#000000" points="136,-292.5 302.8828,-292.5 "/>
<text text-anchor="start" x="144" y="-277.3" font-family="Times,serif" font-size="14.00" fill="#000000">resource_url</text>
<text text-anchor="start" x="144" y="-263.3" font-family="Times,serif" font-size="14.00" fill="#000000">collection_url</text>
<text text-anchor="start" x="144" y="-249.3" font-family="Times,serif" font-size="14.00" fill="#000000">edit_resource_path</text>
<text text-anchor="start" x="144" y="-235.3" font-family="Times,serif" font-size="14.00" fill="#000000">edit_resource_url</text>
<text text-anchor="start" x="144" y="-221.3" font-family="Times,serif" font-size="14.00" fill="#000000">new_resource_path</text>
<text text-anchor="start" x="144" y="-207.3" font-family="Times,serif" font-size="14.00" fill="#000000">new_resource_url</text>
<text text-anchor="start" x="144" y="-193.3" font-family="Times,serif" font-size="14.00" fill="#000000">resource_path</text>
<text text-anchor="start" x="144" y="-179.3" font-family="Times,serif" font-size="14.00" fill="#000000">collection_path</text>
<polyline fill="none" stroke="#000000" points="136,-172.5 302.8828,-172.5 "/>
<text text-anchor="start" x="144" y="-157.3" font-family="Times,serif" font-size="14.00" fill="#000000">_layout</text>
<text text-anchor="start" x="144" y="-143.3" font-family="Times,serif" font-size="14.00" fill="#000000">collection_point_params</text>
</g>
</g>
</svg>
