<?xml version="1.0" encoding="UTF-8" standalone="no"?>
<!DOCTYPE svg PUBLIC "-//W3C//DTD SVG 1.1//EN"
 "http://www.w3.org/Graphics/SVG/1.1/DTD/svg11.dtd">
<!-- Generated by graphviz version 2.40.1 (20161225.0304)
 -->
<!-- Title: models_diagram Pages: 1 -->
<svg width="1257pt" height="151pt"
 viewBox="0.00 0.00 1256.55 151.00" xmlns="http://www.w3.org/2000/svg" xmlns:xlink="http://www.w3.org/1999/xlink">
<g id="graph0" class="graph" transform="scale(1 1) rotate(0) translate(4 147)">
<title>models_diagram</title>
<polygon fill="transparent" stroke="transparent" points="-4,4 -4,-147 1252.55,-147 1252.55,4 -4,4"/>
<!-- _diagram_info -->
<g id="node1" class="node">
<title>_diagram_info</title>
<text text-anchor="start" x="8" y="-93.6" font-family="Times,serif" font-size="13.00" fill="#000000">Models diagram</text>
<text text-anchor="start" x="8" y="-80.6" font-family="Times,serif" font-size="13.00" fill="#000000">Date: Apr 01 2019 &#45; 16:23</text>
<text text-anchor="start" x="8" y="-67.6" font-family="Times,serif" font-size="13.00" fill="#000000">Migration version: 20190318180600</text>
<text text-anchor="start" x="8" y="-54.6" font-family="Times,serif" font-size="13.00" fill="#000000">Generated by RailRoady 1.5.3</text>
<text text-anchor="start" x="8" y="-41.6" font-family="Times,serif" font-size="13.00" fill="#000000">http://railroady.prestonlee.com</text>
</g>
<!-- CollectionPoint -->
<g id="node2" class="node">
<title>CollectionPoint</title>
<path fill="none" stroke="#000000" d="M237.8254,-21.5C237.8254,-21.5 461.55,-21.5 461.55,-21.5 467.55,-21.5 473.55,-27.5 473.55,-33.5 473.55,-33.5 473.55,-109.5 473.55,-109.5 473.55,-115.5 467.55,-121.5 461.55,-121.5 461.55,-121.5 237.8254,-121.5 237.8254,-121.5 231.8254,-121.5 225.8254,-115.5 225.8254,-109.5 225.8254,-109.5 225.8254,-33.5 225.8254,-33.5 225.8254,-27.5 231.8254,-21.5 237.8254,-21.5"/>
<text text-anchor="middle" x="349.6877" y="-106.3" font-family="Times,serif" font-size="14.00" fill="#000000">CollectionPoint</text>
<polyline fill="none" stroke="#000000" points="225.8254,-99.5 473.55,-99.5 "/>
<text text-anchor="start" x="233.8254" y="-84.3" font-family="Times,serif" font-size="14.00" fill="#000000">id :bigint</text>
<text text-anchor="start" x="233.8254" y="-70.3" font-family="Times,serif" font-size="14.00" fill="#000000">name :character varying</text>
<text text-anchor="start" x="233.8254" y="-56.3" font-family="Times,serif" font-size="14.00" fill="#000000">direction :character varying</text>
<text text-anchor="start" x="233.8254" y="-42.3" font-family="Times,serif" font-size="14.00" fill="#000000">created_at :timestamp without time zone</text>
<text text-anchor="start" x="233.8254" y="-28.3" font-family="Times,serif" font-size="14.00" fill="#000000">updated_at :timestamp without time zone</text>
</g>
<!-- AdminUser -->
<g id="node3" class="node">
<title>AdminUser</title>
<path fill="none" stroke="#000000" d="M503.053,-.5C503.053,-.5 798.3225,-.5 798.3225,-.5 804.3225,-.5 810.3225,-6.5 810.3225,-12.5 810.3225,-12.5 810.3225,-130.5 810.3225,-130.5 810.3225,-136.5 804.3225,-142.5 798.3225,-142.5 798.3225,-142.5 503.053,-142.5 503.053,-142.5 497.053,-142.5 491.053,-136.5 491.053,-130.5 491.053,-130.5 491.053,-12.5 491.053,-12.5 491.053,-6.5 497.053,-.5 503.053,-.5"/>
<text text-anchor="middle" x="650.6877" y="-127.3" font-family="Times,serif" font-size="14.00" fill="#000000">AdminUser</text>
<polyline fill="none" stroke="#000000" points="491.053,-120.5 810.3225,-120.5 "/>
<text text-anchor="start" x="499.053" y="-105.3" font-family="Times,serif" font-size="14.00" fill="#000000">updated_at :timestamp without time zone</text>
<text text-anchor="start" x="499.053" y="-91.3" font-family="Times,serif" font-size="14.00" fill="#000000">email :character varying</text>
<text text-anchor="start" x="499.053" y="-77.3" font-family="Times,serif" font-size="14.00" fill="#000000">encrypted_password :character varying</text>
<text text-anchor="start" x="499.053" y="-63.3" font-family="Times,serif" font-size="14.00" fill="#000000">reset_password_token :character varying</text>
<text text-anchor="start" x="499.053" y="-49.3" font-family="Times,serif" font-size="14.00" fill="#000000">reset_password_sent_at :timestamp without time zone</text>
<text text-anchor="start" x="499.053" y="-35.3" font-family="Times,serif" font-size="14.00" fill="#000000">remember_created_at :timestamp without time zone</text>
<text text-anchor="start" x="499.053" y="-21.3" font-family="Times,serif" font-size="14.00" fill="#000000">created_at :timestamp without time zone</text>
<text text-anchor="start" x="499.053" y="-7.3" font-family="Times,serif" font-size="14.00" fill="#000000">id :bigint</text>
</g>
<!-- ApplicationRecord -->
<g id="node4" class="node">
<title>ApplicationRecord</title>
<ellipse fill="none" stroke="#000000" cx="905.6877" cy="-71.5" rx="77.2916" ry="18"/>
<text text-anchor="middle" x="905.6877" y="-67.3" font-family="Times,serif" font-size="14.00" fill="#000000">ApplicationRecord</text>
</g>
<!-- User -->
<g id="node5" class="node">
<title>User</title>
<path fill="none" stroke="#000000" d="M1012.8254,-.5C1012.8254,-.5 1236.55,-.5 1236.55,-.5 1242.55,-.5 1248.55,-6.5 1248.55,-12.5 1248.55,-12.5 1248.55,-130.5 1248.55,-130.5 1248.55,-136.5 1242.55,-142.5 1236.55,-142.5 1236.55,-142.5 1012.8254,-142.5 1012.8254,-142.5 1006.8254,-142.5 1000.8254,-136.5 1000.8254,-130.5 1000.8254,-130.5 1000.8254,-12.5 1000.8254,-12.5 1000.8254,-6.5 1006.8254,-.5 1012.8254,-.5"/>
<text text-anchor="middle" x="1124.6877" y="-127.3" font-family="Times,serif" font-size="14.00" fill="#000000">User</text>
<polyline fill="none" stroke="#000000" points="1000.8254,-120.5 1248.55,-120.5 "/>
<text text-anchor="start" x="1008.8254" y="-105.3" font-family="Times,serif" font-size="14.00" fill="#000000">updated_at :timestamp without time zone</text>
<text text-anchor="start" x="1008.8254" y="-91.3" font-family="Times,serif" font-size="14.00" fill="#000000">email :character varying</text>
<text text-anchor="start" x="1008.8254" y="-77.3" font-family="Times,serif" font-size="14.00" fill="#000000">password_digest :character varying</text>
<text text-anchor="start" x="1008.8254" y="-63.3" font-family="Times,serif" font-size="14.00" fill="#000000">points :integer</text>
<text text-anchor="start" x="1008.8254" y="-49.3" font-family="Times,serif" font-size="14.00" fill="#000000">firstname :character varying</text>
<text text-anchor="start" x="1008.8254" y="-35.3" font-family="Times,serif" font-size="14.00" fill="#000000">lastname :character varying</text>
<text text-anchor="start" x="1008.8254" y="-21.3" font-family="Times,serif" font-size="14.00" fill="#000000">created_at :timestamp without time zone</text>
<text text-anchor="start" x="1008.8254" y="-7.3" font-family="Times,serif" font-size="14.00" fill="#000000">id :bigint</text>
</g>
</g>
</svg>
